# xmcd
#
# Track frame offsets:
#  150
#  7666
#  32264
#  50583
#  79100
#  99923
#  118514
#  138879
#  162056
#  174267
#  192714
#  213561
#  246916
#  268997
#  288820
#  318291
#
# Disc length: 4482 seconds
#
# Revision: 0
# Processed by: cddbd v1.4PL0 Copyright (c) Steve Scherf et al.
# Submitted via: AltoMP3_Maker 3.0
#
DISCID=ce118010
DTITLE=Alan Parsons Project - DeLuxe Collection
DYEAR=1900
DGENRE=
TTITLE0=Blue Sky
TTITLE1=Blown By the Wind
TTITLE2=Brother Up In Heaven
TTITLE3=One Day To Fly
TTITLE4=The Cask Of Amontillado
TTITLE5=Some Other Time
TTITLE6=Let's Talk About Me
TTITLE7=The Same Old Sun
TTITLE8=Turn Of A Friendly Card
TTITLE9=Nothing Left To Loose
TTITLE10=Eye In The Sky
TTITLE11=Silence And I
TTITLE12=Iold And Wise
TTITLE13=Dancing On A Highwire
TTITLE14=Ammonia Avenue
TTITLE15=Blue Blue Sky
EXTD=
EXTT0=
EXTT1=
EXTT2=
EXTT3=
EXTT4=
EXTT5=
EXTT6=
EXTT7=
EXTT8=
EXTT9=
EXTT10=
EXTT11=
EXTT12=
EXTT13=
EXTT14=
EXTT15=
PLAYORDER=
